<?xml version="1.0" encoding="utf-8"?>
<!-- Generator: Adobe Illustrator 16.0.0, SVG Export Plug-In . SVG Version: 6.00 Build 0)  -->
<!DOCTYPE svg PUBLIC "-//W3C//DTD SVG 1.1//EN" "http://www.w3.org/Graphics/SVG/1.1/DTD/svg11.dtd">
<svg version="1.1" id="Layer_1" xmlns="http://www.w3.org/2000/svg" xmlns:xlink="http://www.w3.org/1999/xlink" x="0px" y="0px"
	 width="387.167px" height="272.173px" viewBox="0 0 387.167 272.173" enable-background="new 0 0 387.167 272.173"
	 xml:space="preserve">
<g>
	<g>
		<path fill-rule="evenodd" clip-rule="evenodd" fill="#FEFEFE" d="M349.082,0.092c11.5,0,23.003,0.131,34.498-0.089
			c2.993-0.058,3.591,0.606,3.585,3.589c-0.111,58.167-0.083,116.333-0.083,174.5c0,30.167-0.055,60.334,0.085,90.5
			c0.014,2.983-0.603,3.584-3.585,3.581c-126.666-0.095-253.333-0.095-380,0c-2.981,0.002-3.585-0.599-3.582-3.581
			c0.101-88.333,0.101-176.666,0-265c-0.003-2.981,0.594-3.615,3.582-3.587c18.499,0.173,37,0.087,55.5,0.087
			c2.974,2.064,6.414,3.657,7.604,7.531c-4.91,12.826-11.063,25.115-16.342,37.782c-0.318,0.765-0.857,1.451-1.056,2.244
			c-1.855,7.385-5.942,11.937-14.17,11.333c-13.845,2.386-21.737,14.502-19.501,27.666c2.202,12.967,14.353,20.813,28.367,18.648
			c0.988-0.152,1.966-0.301,2.966-0.127c2.33,0.549,3.635,2.27,4.633,4.233c4.829,9.498,10.383,18.601,15.25,28.077
			c0.781,1.521,1.47,2.984,1.101,4.737c-0.536,2.01-2.092,3.352-3.266,4.942c-5.632,7.633-6.231,18.098-1.455,25.739
			c5.399,8.638,15.001,13.212,24.109,11.485c10.008-1.897,17.392-9.263,19.249-19.111c0.385-2.041-0.134-4.429,2.002-5.898
			c6.812-1.01,13.632-1.87,20.539-1.719c1.035,0.022,1.959,0.178,2.484,1.199c0.731,2.745-0.873,4.816-2.176,6.882
			c-11.782,18.67-22.751,37.836-34.501,56.524c-1.06,1.686-1.951,3.499-3.869,4.427c-1.492,0.577-2.931,0.106-4.396-0.191
			c-11.759-2.387-18.912,1.527-23.417,12.796c-2.136,7.822,0.553,13.972,6.572,18.963c11.295,7.846,24.196,3.656,28.864-9.355
			c0.816-2.274,0.979-5.031,3.93-5.934c7.313-0.611,14.63-0.29,21.938-0.261c26.094,0.106,52.191-0.388,78.284,0.239
			c2.564,0.914,5.235,0.713,7.886,0.735c18.256,0.156,36.516-0.315,54.76,0.242c2.633,0.622,3.407,2.96,4.426,4.998
			c2.432,4.873,6.5,6.927,11.732,6.798c4.825-0.119,7.984-2.842,9.947-7.069c2.212-4.767,1.187-9.018-2.186-12.86
			c-0.979-1.116-2.121-2.109-2.764-3.496c0.232-5.666,4.145-9.681,6.795-14.12c12.459-20.87,24.666-41.89,37.137-62.752
			c1.269-2.123,2.278-4.479,4.563-5.821c1.927-0.595,3.553,0.475,5.274,0.979c9.771,2.864,19.963-2.146,22.952-11.306
			c3.179-9.735-2.193-20.149-12.1-23.46c-1.407-0.47-2.963-0.485-4.245-1.381c-0.409-0.396-0.699-0.858-0.896-1.392
			c-0.75-3.791-0.248-7.624-0.434-11.435c0.169-9.003-0.324-18.01,0.263-27.006c1.396-4.733,0.521-9.587,0.74-14.385
			c-0.015-0.934-0.014-1.865-0.011-2.799c-0.064-17.402,1.672-34.767,1.035-52.179C347.635,3.408,347.719,1.565,349.082,0.092z"/>
		<path fill-rule="evenodd" clip-rule="evenodd" fill="#FEFEFE" d="M168.082,0.092c42.334,0,84.666,0,127,0
			c3.523,2.075,3.741,6.394,6.408,9.42c0.491-3.646-3.516-5.913-2.408-9.42c16,0,32,0,48,0c0.658,0.802,0.972,1.739,0.948,2.758
			c-0.265,11.729,0.686,23.469-0.686,35.196c-0.807,6.901-0.144,13.885-0.266,20.829c-0.395,16.827-1.508,33.641-1.021,50.488
			c0.048,1.643,0.115,3.342-1.218,4.637c-6.409,1.742-11.152,6.358-16.624,9.73c-4.104-0.453-7.408-2.858-10.902-4.685
			c-24.29-12.696-48.729-25.101-73.185-37.47c-12.604-6.375-24.92-13.298-37.655-19.412c-1.494-0.718-2.998-1.471-3.924-2.963
			c-0.542-1.047-0.587-2.196-0.714-3.34c-0.715-6.456-4.618-9.459-11.134-8.542c-1.287,0.182-2.544,0.752-3.834,0.04
			c-3.329-3.541-3.877-8.381-5.726-12.595c-4.266-9.722-8.108-19.631-12.125-29.463C168.356,3.687,167.196,2.037,168.082,0.092z"/>
		<path fill-rule="evenodd" clip-rule="evenodd" fill="#FEFEFE" d="M98.082,0.092c1.667,0,3.333,0,5,0
			c9.403,3.186,17.016,9.526,25.365,14.542c17.366,10.434,34.602,21.086,51.785,31.821c1.799,1.124,3.869,2.041,4.625,4.329
			c0.204,2.646-0.062,5.137-2.248,7.017c-4.549,0.919-9.176,1.369-13.781,1.607c-11.414,0.591-22.756,2.051-34.141,2.749
			c-10.255,0.63-20.472,1.624-30.712,2.357c-10.562,0.758-21.14,1.349-31.656,2.692c-4.295,0.549-8.625,0.322-12.937,0.158
			c-5.236-2.138-9.592-5.639-13.956-9.129c0.639-5.686,3.748-10.454,5.989-15.511c5.202-11.741,10.012-23.663,15.854-35.118
			c4.491-0.395,8.688,1.494,13.1,1.674c3.558,2.821-0.101,5.73,0.167,9.342c1.571-3.265,2.208-6.298,3.97-8.766
			C88.837,6.334,94.276,4.349,98.082,0.092z"/>
		<path fill-rule="evenodd" clip-rule="evenodd" fill="#FEFEFE" d="M107.082,0.092c20,0,40,0,60,0
			c6.864,15.785,13.272,31.757,19.517,47.797c-0.082,0.826-0.502,1.388-1.299,1.65c-8.927-4.362-16.942-10.246-25.438-15.331
			c-16.33-9.773-32.43-19.928-48.64-29.899C109.6,3.312,106.894,3.009,107.082,0.092z"/>
		<path fill-rule="evenodd" clip-rule="evenodd" fill="#80D5F6" d="M107.082,0.092c7.199,6.246,15.844,10.26,23.813,15.308
			c17.991,11.396,36.188,22.468,54.301,33.671c0.207,0.797-0.187,1.146-0.924,1.24c-27.063-16.739-54.126-33.479-81.189-50.219
			C104.416,0.092,105.749,0.092,107.082,0.092z"/>
		<path fill-rule="evenodd" clip-rule="evenodd" fill="#39ABE2" d="M98.082,0.092c-2.25,5.802-8.081,7.001-12.64,9.833
			c-1.22,1.197-2.553,1.392-4.013,0.452c-4.915,0.405-9.54-1.203-14.274-2.051c-0.621-0.176-0.747-0.837-1.178-1.199
			c-2.371-2.274-5.533-3.772-6.895-7.035c1.333,0,2.667,0,4,0c1.653,1.244,3.355,2.091,5.348,0.674
			c0.957,0.178,1.79,0.557,2.348,1.4c2.89,3.919,9.296,5.012,15.146,2.545c2.896-1.222,5.392-3.162,8.158-4.619
			C95.416,0.092,96.749,0.092,98.082,0.092z"/>
		<path fill-rule="evenodd" clip-rule="evenodd" fill="#1E3B6B" d="M346.209,59.08c0.345-18.017,0.696-36.033,1.023-54.051
			c0.029-1.644-0.097-3.291-0.15-4.937c0.667,0,1.333,0,2,0c0.484,14.723-0.353,29.423-0.744,44.131
			c-0.124,4.63-0.271,9.26-0.408,13.89C347.521,58.729,347.25,59.59,346.209,59.08z"/>
		<path fill-rule="evenodd" clip-rule="evenodd" fill="#4C784C" d="M186.103,48.108c-6.198-15.051-12.396-30.103-18.591-45.155
			c-0.376-0.914-0.837-1.824-0.429-2.86c0.333,0,0.667,0,1,0c6.398,15.628,12.797,31.256,19.195,46.885
			C187.422,47.911,187.023,48.281,186.103,48.108z"/>
		<path fill-rule="evenodd" clip-rule="evenodd" fill="#6EBEDF" d="M94.082,0.092c-5.682,7.797-13.94,7.682-20.42,6.621
			c-2.199-0.359-4.042-1.684-3.513-4.507c6.771,0.491,13.51,0.678,19.933-2.114C91.416,0.092,92.749,0.092,94.082,0.092z"/>
		<path fill-rule="evenodd" clip-rule="evenodd" fill="#02AEEE" d="M90.082,0.092c-6.228,4.641-12.9,5.081-19.934,2.113
			C69.498,1.804,68.847,1.403,68.196,1c-0.299-0.168-0.416-0.357-0.35-0.571c0.069-0.225,0.148-0.337,0.236-0.337
			C75.416,0.092,82.749,0.092,90.082,0.092z"/>
		<path fill-rule="evenodd" clip-rule="evenodd" fill="#A3BD3C" d="M299.082,0.092c1.278,2.676,2.643,5.314,3.791,8.045
			c0.431,1.024,1.752,2.354-0.202,3.346c-2.337,1.187-2.343-0.983-2.938-2.116c-1.607-3.062-3.108-6.179-4.651-9.274
			C296.416,0.092,297.748,0.092,299.082,0.092z"/>
		<path fill-rule="evenodd" clip-rule="evenodd" fill="#62BAE1" d="M68.082,0.092c-0.018,0.31,0.02,0.613,0.113,0.908
			c-1.652,3.479-1.758,3.461-5.113-0.908C64.749,0.092,66.416,0.092,68.082,0.092z"/>
		<path fill-rule="evenodd" clip-rule="evenodd" fill="#36AAE3" d="M108.275,160.32c-0.429,14.484-10.195,25.102-23.684,25.748
			c-13.003,0.622-24.475-9.329-25.804-22.574c-0.853-8.505,2.309-15.545,8.454-21.34c0.565-1.516,1.751-2.464,3.029-3.335
			c7.497-4.674,15.4-4.631,23.524-2.021c4.109,0.788,6.665,3.674,9.101,6.729c3.321,4.351,5.992,8.983,6.273,14.642
			C109.073,158.969,108.658,159.638,108.275,160.32z"/>
		<path fill-rule="evenodd" clip-rule="evenodd" fill="#7FD4F5" d="M102.023,144.1c-2.489-1.993-4.2-4.98-7.533-5.894
			c-11.937-5.11-22.586-12.674-34.493-18.297c2.754,7.264,7.768,13.085,10.116,20.242c-0.958,0.667-1.915,1.334-2.872,2.002
			c-3.007-8.586-8.152-16.071-12.504-23.95c-2.352-4.258-3.678-9.226-7.713-12.461c0.502-1.696,1.749-1.475,3.025-1.181
			c6.063,10.204,16.775,14.07,26.392,19.501c7.102,4.012,14.382,7.734,21.262,12.105c4.04,2.565,7.138,1.765,10.233-1.217
			c4.195-4.041,8.538-7.928,12.781-11.907c14.322-13.43,28.899-26.582,43.314-39.909c6.344-5.864,12.317-12.172,19.217-17.438
			c1.186-0.904,2.188-2.068,3.765-2.338c1.042-0.046,1.936,0.201,2.422,1.239c0.143,0.788-0.121,1.409-0.763,1.877
			c-4.922,3.176-8.824,7.58-13.04,11.518c-14.688,13.718-29.719,27.061-44.292,40.903c-7.338,6.971-15.084,13.517-22.319,20.598
			c-0.826,4.489,3.412,4.275,5.561,5.987c4.156,2.06,8.261,4.214,12.167,6.715c1.478,0.947,3.358,1.616,3.531,3.813
			c-0.319,0.382-0.713,0.652-1.19,0.802c-4.473,0.135-7.311-3.449-11.1-4.87C112.729,149.204,107.939,145.509,102.023,144.1z"/>
		<path fill-rule="evenodd" clip-rule="evenodd" fill="#37ABE3" d="M49.904,105.009c-0.968,0.216-2.087-0.162-2.881,0.734
			c-18.983,4.793-34.004-6.932-32.99-25.75c0.595-11.034,9.45-20.394,20.886-22.077c3.658-0.267,7.328-0.957,10.947,0.281
			c4.563,1.921,8.792,4.344,12.154,8.071c1.505,0.528,2.403,1.723,3.269,2.962c6.854,12.546,3.178,28.126-8.162,34.678
			C52.121,104.492,51.117,105.045,49.904,105.009z"/>
		<path fill-rule="evenodd" clip-rule="evenodd" fill="#545C72" d="M328.08,123.164c3.39-2.497,5.707-6.365,9.884-7.837
			c1.669-0.588,3.278-1.603,5.191-1.143c3.561,0.6,2.125,3.385,2.377,5.427c-0.192,0.476-0.555,0.732-1.058,0.796
			c-3.266-3.076-5.521-0.34-7.913,1.418c-1.476,1.083-2.582,2.474-3.026,4.308c-0.282,0.628-0.675,1.184-1.1,1.717
			c-2.807,7.412-0.977,13.73,4.594,15.809c0.649,0.308,1.142,0.784,1.52,1.388c3.758,4.859,8.581,2.561,13.144,1.945
			c5.78-2.966,8.994-7.592,9.135-14.17c0.128-5.971-3.275-9.802-7.916-12.854c-2.151-1.415-4.214-1.576-6.134,0.431
			c-0.574-0.01-0.954-0.281-1.148-0.819c0.332-1.947-1.112-4.421,1.68-5.628c8.662,0.392,14.264,5.097,17.12,12.923
			c2.741,7.509,1.176,14.501-4.508,20.167c-5.964,5.945-13.138,7.38-21.107,4.546c-1.241-0.441-2.459-0.952-3.687-1.432
			c-0.761-0.053-1.443-0.322-2.083-0.724c-7.993-6.731-9.613-15.157-6.579-24.82C326.744,123.84,327.352,123.433,328.08,123.164z"/>
		<path fill-rule="evenodd" clip-rule="evenodd" fill="#5B6579" d="M287.11,232.053c6.234,4.627,8.32,9.826,6.325,15.768
			c-2.018,6.008-7.023,9.578-13.197,9.413c-6.571-0.176-10.825-4.086-13.177-12.115c-0.503-0.568-0.851-1.21-0.928-1.979
			c0.212-3.033,1.253-5.755,3.092-8.179c0.504-0.573,1.095-1.029,1.795-1.34c0.485-0.152,0.981-0.182,1.483-0.101
			c1.581,0.56,2.367,1.631,2.141,3.346c-0.719,2.038-3.322,3.757-1.075,6.313c0.216,0.664,0.204,1.327,0.017,1.992
			c-0.748,4.585,2.523,6.044,5.849,7.134c3.628,1.19,7.791-1.133,9.585-5.157c1.383-3.101,1.158-6.108-1.167-8.775
			c-1.347-1.544-2.635-0.695-3.926,0.101c-1.714,0.202-3.327-0.046-4.771-1.054c1.627-3.194-1.437-1.994-2.511-2.663
			c-1.44-0.915-2.261-2.095-1.661-3.882c3.389-2.688,6.964-1.916,10.572-0.573C286.299,230.685,286.596,231.464,287.11,232.053z"/>
		<path fill-rule="evenodd" clip-rule="evenodd" fill="#76B5D3" d="M128.825,156.236c0.48-0.07,0.96-0.142,1.441-0.213
			c1.167-0.908,2.515-0.349,3.783-0.479c1.215,0.055,2.389-0.227,3.582-0.42c20.306-1.559,40.584-3.371,60.916-4.445
			c2.273-0.134,4.59,0.239,6.807-0.586c0.318-0.08,0.637-0.187,0.957-0.189c2.342-0.023,6.126-1.004,6.361,1.536
			c0.299,3.243-3.58,2.715-6.035,3.027c-0.862,0.05-1.726,0.008-2.588,0.008c-2.262-0.002-4.524-0.008-6.709,0.742
			c-19.713,1.505-39.41,3.215-59.143,4.266c-1.184,0.009-2.387-0.033-3.432,0.695c-0.382,0.201-0.796,0.301-1.224,0.311
			c-0.618-0.922-1.603-0.01-2.324-0.45c-3.565-2.135-7.397-0.681-11.084-0.684c-3.953-0.003-7.905,0.617-11.858,0.966
			c-0.037-0.764-0.074-1.526-0.111-2.289c2.956-2.217,6.4-1.094,9.633-1.399c1.808-0.171,3.652,0.076,5.422-0.497
			C125.098,155.514,126.939,157.003,128.825,156.236z"/>
		<path fill-rule="evenodd" clip-rule="evenodd" fill="#41738C" d="M287.11,232.053c-0.432-0.459-0.862-0.918-1.294-1.377
			c-0.824-2.4,0.7-4.157,1.763-5.96c13.909-23.586,27.952-47.094,41.844-70.69c1.11-1.885,1.672-4.467,4.41-5.003
			c0.431,0.377,0.862,0.755,1.293,1.132c-15.606,26.405-31.216,52.81-46.809,79.223C287.822,230.215,287.508,231.159,287.11,232.053
			z"/>
		<path fill-rule="evenodd" clip-rule="evenodd" fill="#396D87" d="M202.684,244.242c-21.232,0.002-42.465,0.017-63.698,0
			c-12.612-0.01-25.224-0.066-37.835-0.103c-0.815,0.687-1.748,1.078-2.82,1.137c-0.531,0.058-1.06,0.054-1.592,0.017
			c-1.108-0.107-2.171-0.325-2.955-1.219c-0.332-0.885-0.254-1.677,0.515-2.322c0.569-0.223,1.151-0.292,1.756-0.217
			c18.15,0.191,36.297,0.326,54.447-0.025c29.771-0.074,59.538-0.041,89.304-0.02c2.46,0.002,5.035-0.324,7.182,1.403
			c0.419,1.512-0.623,1.671-1.648,1.659C231.12,244.385,216.896,245.003,202.684,244.242z"/>
		<path fill-rule="evenodd" clip-rule="evenodd" fill="#23406E" d="M131.217,160.038c0.681-0.044,1.445-1.83,2.032,0.097
			c0.617,2.262-0.976,3.76-1.956,5.421c-12.159,20.601-24.929,40.832-37.082,61.434c-0.792,1.078-1.536,2.194-2.308,3.291
			c-0.507,0.718-0.985,1.464-1.689,2.021c-0.436,0.154-0.863,0.126-1.286-0.055c-0.295-0.344-0.493-0.737-0.6-1.179
			c-0.09-0.677,0.005-1.328,0.262-1.959c0.524-1.252,1.526-2.1,2.521-2.953C104.48,204.116,117.849,182.077,131.217,160.038z"/>
		<path fill-rule="evenodd" clip-rule="evenodd" fill="#76D1F6" d="M45.867,58.198c-3.649-0.094-7.298-0.188-10.947-0.281
			c0.281-0.175,0.596-0.54,0.839-0.497c7.446,1.316,9.609-3.511,11.995-9.271C53.477,34.33,59.86,20.784,65.977,7.127
			c0.392,0.399,0.785,0.799,1.177,1.199c-3.16,10.534-8.577,20.115-12.776,30.211C51.635,45.13,48.71,51.647,45.867,58.198z"/>
		<path fill-rule="evenodd" clip-rule="evenodd" fill="#748DB1" d="M98.034,244.139c1.039,0,2.078,0,3.116,0
			c-2.614,12.148-7.961,17.942-17.873,19.18c-5.326,0.665-10.239-0.333-14.281-4.179c-0.393-1.493-1.777-2.209-2.618-3.35
			c-0.79-1.072-1.539-2.17,0.291-3.007c1.626,0.176,2.615,1.355,3.729,2.345c10.141,9.006,23.43,4.845,26.443-8.292
			C97.068,245.845,97.328,244.903,98.034,244.139z"/>
		<path fill-rule="evenodd" clip-rule="evenodd" fill="#1F3B69" d="M345.021,120.036c0.091-2.178,0.432-4.436-1.865-5.852
			c2.825-1.674,1.585-4.47,1.664-6.748c0.557-16.115,0.946-32.236,1.39-48.356c0.573-0.322,1.146-0.645,1.721-0.967
			c-0.014,0.673-0.027,1.346-0.041,2.019c-0.966,4.807,0.382,9.732-0.75,14.531c0.574,9.159-0.056,18.308-0.244,27.46
			c-0.269,3.965-1.045,7.947,0.412,11.853l0.002-0.024c-1.388,1.833-1.35,3.942-1.178,6.078
			C345.763,120.316,345.393,120.318,345.021,120.036z"/>
		<path fill-rule="evenodd" clip-rule="evenodd" fill="#647FA9" d="M91.112,226.155c-0.056,1.335-0.588,2.361-1.88,2.894
			c-0.239,0.015-0.478,0.03-0.717,0.047c-3.76-0.85-7.597-1.141-11.377-0.571c-4.194,0.632-7.102,3.327-9.341,6.847
			c-1.145,1.801-2.122,3.781-4.065,4.945c-0.906,0.081-1.314-0.499-1.617-1.217c2.715-10.593,12.898-16.808,23.298-14.235
			C87.303,225.332,89.211,225.726,91.112,226.155z"/>
		<path fill-rule="evenodd" clip-rule="evenodd" fill="#4B7B92" d="M202.684,244.242c13.051-0.064,26.102-0.107,39.151-0.222
			c1.755-0.016,3.661,0.614,5.231-0.78c6.617-2.824,13.273-2.481,19.953-0.247c0.015,0.709,0.028,1.417,0.042,2.126
			c-20.157-0.132-40.313-0.255-60.47-0.414C205.288,244.694,203.986,244.403,202.684,244.242z"/>
		<path fill-rule="evenodd" clip-rule="evenodd" fill="#617DA9" d="M62.113,239.099c0.375,0.424,0.751,0.849,1.127,1.272
			c1.607,4.094,1.791,8.505,2.84,12.724c-0.51,2.729,3.809,3.13,2.915,6.045C62.454,253.918,59.864,247.339,62.113,239.099z"/>
		<path fill-rule="evenodd" clip-rule="evenodd" fill="#1E3B6B" d="M347.139,74.663c0.327-4.84-0.953-9.763,0.75-14.531
			C347.844,64.986,348.47,69.875,347.139,74.663z"/>
		<path fill-rule="evenodd" clip-rule="evenodd" fill="#545C72" d="M347.307,113.975c-2.285-3.877-1.326-7.865-0.412-11.853
			C347.032,106.074,347.169,110.024,347.307,113.975z"/>
		<path fill-rule="evenodd" clip-rule="evenodd" fill="#9EB931" d="M188.983,65.331c-0.385-0.912-1.177-1.246-2.061-1.447
			c-2.492-0.737-3.602-2.719-4.451-4.938c-0.136-0.719,0.031-1.375,0.417-1.984c0.461-2.218,0.922-4.435,1.383-6.65
			c0.307-0.412,0.615-0.825,0.923-1.239c0.302-0.321,0.604-0.642,0.907-0.963c0.391-0.377,0.783-0.755,1.174-1.132
			c10.72-3.587,16.584,0.906,15.852,12.146c0.422,0.895,0.135,1.718-0.244,2.535c-0.93,1.856-2.596,2.935-4.251,4.028
			c-0.543,0.383-1.118,0.704-1.751,0.917c-2.165,0.356-4.33,0.903-6.519,0.114C189.744,66.415,189.401,65.835,188.983,65.331z"/>
		<path fill-rule="evenodd" clip-rule="evenodd" fill="#193767" d="M202.221,60.802c0.303-0.561,0.605-1.121,0.908-1.681
			c40.934,20.933,81.867,41.864,122.797,62.802c0.737,0.377,1.437,0.825,2.154,1.24c-0.392,0.359-0.784,0.718-1.177,1.076
			c-2.167,1.142-3.878-0.277-5.567-1.156c-32.012-16.64-64.244-32.85-96.306-49.391c-6.05-3.122-11.976-6.496-18.165-9.357
			C205.088,63.514,203.096,62.86,202.221,60.802z"/>
		<path fill-rule="evenodd" clip-rule="evenodd" fill="#A4BE3E" d="M309.776,27.508c0.235,1.376,0.347,2.21-0.664,2.588
			c-1.088,0.406-2.04,0.119-2.399-0.989c-1.011-3.118-1.854-6.292-2.87-9.409c-0.457-1.401,0.396-1.741,1.358-2.053
			c0.905-0.293,1.547-0.03,1.849,0.978C307.989,21.768,308.973,24.9,309.776,27.508z"/>
		<path fill-rule="evenodd" clip-rule="evenodd" fill="#A4BE3E" d="M307.055,96.221c-0.861,2.916-1.938,6.224-3.727,9.246
			c-0.521,0.885-1.381,0.808-2.184,0.478c-0.982-0.404-0.968-1.178-0.631-2.042c1.205-3.09,2.403-6.183,3.586-9.281
			c0.377-0.983,1.021-1.163,1.946-0.801C306.967,94.181,307.275,94.846,307.055,96.221z"/>
		<path fill-rule="evenodd" clip-rule="evenodd" fill="#A3BD3C" d="M307.095,84.289c0.395-2.351,0.805-5.109,1.347-7.842
			c0.187-0.945,0.599-1.914,1.953-1.706c1.54,0.235,1.765,1.192,1.492,2.501c-0.569,2.728-1.078,5.468-1.69,8.186
			c-0.232,1.03-0.146,2.573-1.896,2.256C306.547,87.365,306.433,86.113,307.095,84.289z"/>
		<path fill-rule="evenodd" clip-rule="evenodd" fill="#A4BE3E" d="M313.12,46.547c-0.199,1.455,0.568,3.156-1.572,3.23
			c-1.628,0.057-1.695-1.363-1.848-2.44c-0.389-2.763-0.59-5.553-0.977-8.316c-0.161-1.146-0.056-1.962,1.25-2.108
			c1.173-0.133,1.839,0.437,2.004,1.612C312.364,41.288,312.764,44.049,313.12,46.547z"/>
		<path fill-rule="evenodd" clip-rule="evenodd" fill="#A0BB36" d="M309.678,63.222c1.081-2.517-0.904-6.737,1.921-6.615
			c3.593,0.155,1.377,4.289,1.514,6.579c0.118,1.957,1.131,5.85-1.533,5.728C307.886,68.743,311.357,64.76,309.678,63.222z"/>
		<path fill-rule="evenodd" clip-rule="evenodd" fill="#7CD3F6" d="M182.889,56.96c0.09,0.562,0.18,1.124,0.269,1.686
			c-0.889,1.843-2.671,1.789-4.284,1.896c-22.653,1.491-45.253,3.655-67.898,5.268c-11.398,0.813-22.802,1.67-34.185,2.701
			c-1.458,0.047-2.919,0.026-4.377,0.037c-4.133,0.613-8.261,1.402-12.463,0.596c-0.643-0.958-1.287-1.916-1.93-2.875
			c21.524-0.877,42.948-3.048,64.398-4.901c14.192-1.227,28.406-2.201,42.613-3.249C170.981,57.679,176.937,57.342,182.889,56.96z"
			/>
		<path fill-rule="evenodd" clip-rule="evenodd" fill="#A5BE3F" d="M73.862,36.737c0.536-2.73,1.017-5.473,1.632-8.185
			c0.261-1.15,0.786-2.201,2.387-1.639c1.24,0.436,1.28,1.353,1.073,2.365c-0.557,2.727-1.161,5.442-1.732,8.166
			c-0.233,1.111-0.23,2.454-1.921,2.253C73.341,39.464,73.608,38.091,73.862,36.737z"/>
		<path fill-rule="evenodd" clip-rule="evenodd" fill="#A3BD3C" d="M71.949,53.167c0.807-2.439-1.004-6.825,2.227-6.679
			c4.018,0.182,0.708,4.149,1.247,6.355c0.038,0.154,0.032,0.339-0.013,0.491c-0.571,1.939,1.208,5.652-1.863,5.489
			C70.466,58.659,73.001,54.959,71.949,53.167z"/>
		<path fill-rule="evenodd" clip-rule="evenodd" fill="#A7C146" d="M81.429,10.377c1.337-0.149,2.674-0.299,4.012-0.45
			c-1.103,2.898-2.25,5.782-3.292,8.705c-0.461,1.296-0.756,2.675-2.602,1.938c-1.861-0.743-1.025-2.063-0.592-3.272
			C79.781,14.992,80.604,12.684,81.429,10.377z"/>
		<path fill-rule="evenodd" clip-rule="evenodd" fill="#00ADEE" d="M102.125,159.044c-0.008,0.686-0.017,1.37-0.026,2.056
			c1.741,1.937,1.113,4.037,0.315,6.069c-3.276,8.343-9.3,13.394-18.328,13.802c-8.226,0.372-14.232-3.992-18.315-10.834
			c-4.619-7.739-1.878-19.338,5.186-23.152c0.376-0.314,0.752-0.628,1.129-0.941c6.137-6.923,19.417-6.272,23.934,1.173
			c0.631,0.656,1.262,1.313,1.893,1.97C101.929,151.355,103.242,154.681,102.125,159.044z"/>
		<path fill-rule="evenodd" clip-rule="evenodd" fill="#FDFEFE" d="M70.113,140.152c-0.491-0.432-1.149-0.77-1.446-1.307
			c-3.844-6.951-7.637-13.93-10.928-21.648c2.947,1.583,5.958,3.062,8.83,4.771c9.253,5.503,19.186,9.838,27.917,16.24
			C86.118,135.763,77.897,135.228,70.113,140.152z"/>
		<path fill-rule="evenodd" clip-rule="evenodd" fill="#74C1E1" d="M70.956,146.985c-3.046,3.768-5.519,7.623-5.995,12.787
			c-0.992,10.754,7.804,19.738,17.862,20.004c12.097,0.32,19.549-9.738,19.275-18.676c3.063-1.239,3.137,0.899,2.817,2.777
			c-1.453,8.525-6.217,14.702-14.398,17.401c-8.388,2.767-15.885,1.123-22.64-5.346c-8.632-8.266-6.969-24.267-0.23-28.993
			C68.906,146.057,69.87,144.552,70.956,146.985z"/>
		<path fill-rule="evenodd" clip-rule="evenodd" fill="#FCFDFD" d="M124.381,157.184c-5.357,1.211-10.788,1.014-16.217,0.846
			c-0.52-5.315-3.233-9.666-6.141-13.93c1.561-1.367,3.031-0.684,4.514,0.177c3.843,2.231,7.696,4.447,11.544,6.669
			C119.9,153.309,123.831,153.539,124.381,157.184z"/>
		<path fill-rule="evenodd" clip-rule="evenodd" fill="#73C1E1" d="M96.019,147.216c-7.692-6.218-15.71-5.799-23.934-1.173
			c-0.266-2.512,0.928-4.24,3.23-4.85c6.985-1.848,13.906-2.36,20.224,2.163C97.001,144.404,98.984,145.546,96.019,147.216z"/>
		<path fill-rule="evenodd" clip-rule="evenodd" fill="#73C1E1" d="M102.125,159.044c-0.584-3.637-2.049-6.896-4.212-9.859
			c0.225-0.743,0.334-1.973,1.32-1.656c3.028,0.971,3.738,3.943,4.521,6.451C104.268,155.625,105.465,158.292,102.125,159.044z"/>
		<path fill-rule="evenodd" clip-rule="evenodd" fill="#FEFEFE" d="M75.992,67.25c26.631-2.1,53.264-4.188,79.894-6.307
			c9.095-0.724,18.183-1.526,27.273-2.295c1.254,1.744,2.51,3.49,3.765,5.235c-17.364,15.948-34.732,31.892-52.087,47.851
			c-8.8,8.093-17.582,16.206-26.357,24.326c-3.31,3.063-6.18,4.338-10.924,1.464c-12.626-7.648-25.655-14.653-38.706-21.569
			c-4.714-2.498-6.285-7.048-8.946-10.946c3.854-3.077,8.088-5.725,10.492-10.326c4.505-8.625,4.462-17.109-0.445-25.539
			c3.911-1.914,8.245-0.843,12.299-1.744c3.535,1.878,1.078,5.802,2.951,8.564C75.567,72.895,73.797,69.859,75.992,67.25z"/>
		<path fill-rule="evenodd" clip-rule="evenodd" fill="#FEFEFE" d="M133.789,156.024c-1.175,1.068-2.351,0.234-3.524-0.001
			c-4.975-4.063-11.077-6.28-16.297-9.943c-1.81-2.536-5.245-3.779-5.813-7.305c14.504-13.459,28.991-26.936,43.517-40.37
			c10.62-9.823,21.263-19.622,31.973-29.346c1.357-1.232,2.206-3.384,4.595-3.196c0.849,2.067-0.611,3.458-1.515,4.971
			c-15.913,26.621-32.137,53.055-48.137,79.624C137.321,152.558,136.197,154.868,133.789,156.024z"/>
		<path fill-rule="evenodd" clip-rule="evenodd" fill="#213E6D" d="M133.789,156.024c18.148-30.053,36.297-60.104,54.448-90.158
			c0.362-0.005,0.61-0.183,0.746-0.536c0.491,0.123,0.981,0.245,1.472,0.367c0.574,2.038-0.71,3.483-1.639,5.021
			c-16.466,27.257-32.92,54.521-49.558,81.674c-0.879,1.436-1.859,2.741-3.291,3.66
			C135.239,156.247,134.499,157.299,133.789,156.024z"/>
		<path fill-rule="evenodd" clip-rule="evenodd" fill="#9DBB37" d="M108.155,138.775c1.982,2.399,5.614,3.486,5.813,7.305
			c-2.499-0.397-4.302-2.036-6.258-3.438C105.438,141.013,106.236,139.859,108.155,138.775z"/>
		<path fill-rule="evenodd" clip-rule="evenodd" fill="#9EBD45" d="M124.381,157.184c-1.586-2.599-5.413-2.933-6.3-6.237
			c3.582,1.763,7.163,3.525,10.745,5.289C127.624,157.865,125.9,157.043,124.381,157.184z"/>
		<path fill-rule="evenodd" clip-rule="evenodd" fill="#00ADEE" d="M37.017,63.951c6.3-0.47,11.422,2.084,15.934,6.205
			c5.331,3.264,7.372,12.604,4.172,19.628c-1.971,4.326-4.685,8.05-9.287,9.969c-1.018,0.387-1.969,0.919-2.954,1.382
			c-8.14,3.538-17.603-1.354-21.809-6.889c-5.174-6.808-5.659-15.052-1.208-22.478C25.283,66.067,31.994,62.604,37.017,63.951z"/>
		<path fill-rule="evenodd" clip-rule="evenodd" fill="#7BC3E2" d="M37.017,63.951c-10.826,1.234-18.399,10.545-16.816,20.674
			c1.732,11.086,11.976,18.078,22.896,15.647c0.637-0.142,1.314-0.107,1.972-0.155c1.044,2.951-1.161,3.285-3.071,3.639
			c-5.815,1.076-11.061-0.481-15.912-3.672l0.003,0.002c-12.678-8.491-13.128-28.346,2.364-36.988
			c3.499-1.951,7.262-2.041,11.006-2.432c1.57-0.163,2.624,0.586,1.644,2.43C39.723,63.293,38.183,62.73,37.017,63.951z"/>
		<path fill-rule="evenodd" clip-rule="evenodd" fill="#49B1E2" d="M41.103,63.095c-3.444-4.175-7.475-1.148-10.495-0.009
			c-13.772,5.196-17.46,22.885-7.416,33.62c1.013,1.082,1.933,2.251,2.896,3.379c-8.061-4.031-10.286-11.067-10.008-19.405
			c0.389-11.666,11.368-21.525,22.921-20.602C41.011,60.24,43.005,60.272,41.103,63.095z"/>
		<path fill-rule="evenodd" clip-rule="evenodd" fill="#6FBFE1" d="M47.052,99.07c11.434-7.723,13.581-18.239,5.9-28.915
			c3.09-2.986,3.195,1.834,5.099,1.951c4.933,11.2,1.553,20.746-5.225,26.714c-1.371,1.207-2.687,2.504-4.742,2.268l0.001,0.001
			C47.508,100.535,46.466,100.218,47.052,99.07z"/>
		<path fill-rule="evenodd" clip-rule="evenodd" fill="#49B1E2" d="M48.084,101.087C55.633,97.711,61.985,88.11,58.9,75.963
			c-0.324-1.275-0.568-2.571-0.849-3.857c6.844,10.604,1.514,23.843-7.412,29.186C49.756,101.82,48.849,102.24,48.084,101.087z"/>
		<path fill-rule="evenodd" clip-rule="evenodd" fill="#49B1E2" d="M47.052,99.07c0.344,0.673,0.688,1.346,1.033,2.019
			c-8.348,5.503-15.665,5.169-21.999-1.005c4.771,1.764,9.475,3.719,14.785,3.058c2.083-0.259,4.042-0.275,4.198-3.024
			C45.73,99.767,46.391,99.418,47.052,99.07z"/>
		<path fill-rule="evenodd" clip-rule="evenodd" fill="#FEFEFE" d="M202.221,60.802c39.762,20.311,79.52,40.625,119.286,60.925
			c1.766,0.901,3.596,1.678,5.396,2.513c0.547,0.819,0.798,1.517,0.43,2.654c-2.854,8.812,0.025,16.017,6.5,22.129
			c-15.26,25.743-30.523,51.485-45.767,77.238c-0.839,1.419-1.504,2.94-2.25,4.415c-3.535,0.074-7.07,0.148-10.605,0.222
			c-4.041-3.537-5.482-8.629-7.6-13.23c-7.918-17.217-15.961-34.375-23.917-51.574c-12.423-26.854-25.173-53.558-37.372-80.518
			c-2.398-5.301-5.346-10.346-7.375-15.821c-0.572-1.544-1.521-2.994-0.92-4.757C199.425,63.599,200.823,62.201,202.221,60.802z"/>
		<path fill-rule="evenodd" clip-rule="evenodd" fill="#044A6B" d="M345.021,120.036c0.37-0.002,0.74-0.004,1.11-0.006
			c0.329,0.039,0.657,0.027,0.982-0.037c1.993-1.396,3.822-0.427,5.557,0.511c5.298,2.862,7.796,7.417,7.707,13.384
			c-0.099,6.605-3.756,10.652-9.595,13.07c-4.643,1.722-8.92,0.987-12.86-1.955c-0.289-0.309-0.578-0.618-0.867-0.928
			c-6.445-4.285-6.143-10.511-4.891-17.01c0.37-0.37,0.74-0.739,1.111-1.109c3.091-2.892,5.073-7.797,10.781-5.939
			C344.377,120.068,344.698,120.074,345.021,120.036z"/>
		<path fill-rule="evenodd" clip-rule="evenodd" fill="#A6AFB6" d="M350.117,146.197c4.913-2.755,9.071-6.022,9.119-12.401
			c0.056-7.377-3.949-11.999-12.123-13.803c-0.465-2.824,1.118-3.073,3.271-2.597c5.399,1.197,11.242,7.986,11.681,13.568
			c0.626,7.99-3.102,14.298-10.019,16.949C351.263,147.5,349.693,147.967,350.117,146.197z"/>
		<path fill-rule="evenodd" clip-rule="evenodd" fill="#98A3AB" d="M332.164,127.065c0.824,0.427,1.266,1.173,1.015,2.013
			c-1.737,5.799,0.681,10.492,3.876,14.997c-0.746,0.25-1.639,0.898-2.216,0.687C329.905,142.945,328.091,130.633,332.164,127.065z"
			/>
		<path fill-rule="evenodd" clip-rule="evenodd" fill="#99A6AE" d="M350.117,146.197c0.644,0.573,1.286,1.146,1.929,1.719
			c-4.189,2.194-8.433,1.391-12.74,0.368c-2.216-0.526-1.794-1.824-1.383-3.281C341.974,145.542,345.863,147.724,350.117,146.197z"
			/>
		<path fill-rule="evenodd" clip-rule="evenodd" fill="#A1ABB2" d="M344.057,120.016c-4.669,0.029-6.821,4.627-10.782,5.939
			c-0.556-3.318,5.939-9.271,9.485-8.658C344.399,117.582,344.084,118.889,344.057,120.016z"/>
		<path fill-rule="evenodd" clip-rule="evenodd" fill="#FEFEFE" d="M267.02,242.993c-6.65,0.082-13.303,0.165-19.953,0.247
			c-32.256-0.121-64.51-0.241-96.765-0.362c-14.76-0.686-29.529-0.268-44.291-0.201c-4.276,0.019-6.955-0.983-8.034-5.386
			c-0.509-2.076-1.896-3.854-3.444-5.411c-1.34-1.348-2.304-2.851-1.713-4.886c13.477-22.286,26.953-44.572,40.43-66.858
			c0.295-0.048,0.573-0.146,0.832-0.293c0.81-0.11,1.259,0.357,1.609,0.991c3.018,3.902,7.001,5.786,11.924,5.711
			c8.559,3.995,16.836,8.535,25.063,13.16c24.486,13.766,49.05,27.393,73.572,41.097c6.385,3.568,12.819,7.051,19.131,10.747
			c1.676,0.981,3.661,1.711,4.566,3.698C268.861,237.788,267.305,240.15,267.02,242.993z"/>
		<path fill-rule="evenodd" clip-rule="evenodd" fill="#FEFEFE" d="M136.224,158.185c20.594-1.422,41.188-2.843,61.782-4.265
			c1.708-0.694,3.068,0.079,3.85,1.408c4.328,7.365,10.665,7.508,17.77,5.158c0.308-0.102,0.658-0.042,0.99-0.009
			c1.574,0.386,2.484,1.586,3.354,2.807c15.783,22.162,31.422,44.428,47.176,66.612c0.802,1.13,2.194,2.271,0.811,3.911
			c-0.26,0.144-0.533,0.248-0.822,0.313c-3.195,0.464-5.125-2.009-7.522-3.319c-27.415-14.983-54.563-30.444-81.893-45.584
			c-5.878-3.257-12.401-5.629-17.249-10.619c-0.38-2.743-2.621-3.047-4.696-3.595c-2.071-0.546-4.08-1.308-6.18-1.769
			c-4.816-2.376-9.861-4.298-14.388-7.233C137.801,161.093,135.674,160.656,136.224,158.185z"/>
		<path fill-rule="evenodd" clip-rule="evenodd" fill="#1D3A69" d="M198.027,64.998c25.727,55.301,51.455,110.601,77.183,165.9
			c0.425,1.227,0.755,2.51,1.988,3.239c0.495,0.713,0.447,1.411-0.058,2.098c-3.343-0.028-3.485-3.143-4.879-5.052
			c-9.891-21.02-19.791-42.036-29.346-63.214c-0.434-1.403-1.093-2.707-1.797-3.992c-14.99-30.952-29.17-62.282-43.697-93.45
			c-0.691-1.483-1.637-2.953-0.885-4.722C197.033,65.536,197.53,65.267,198.027,64.998z"/>
		<path fill-rule="evenodd" clip-rule="evenodd" fill="#7FD4F5" d="M164.892,174.434c10.952,7.214,22.714,13.015,34.106,19.455
			c23.966,13.551,48.08,26.838,72.134,40.232c-0.396,0.374-0.791,0.748-1.187,1.123c-18.037-9.99-36.088-19.954-54.104-29.981
			c-18.461-10.273-36.798-20.774-55.393-30.799c-4.471-2.41-8.791-5.113-13.375-7.319c-4.529-1.047-8.424-3.273-11.85-6.373
			c-0.381-0.31-0.763-0.618-1.143-0.929c0.127-1.313,0.911-1.775,2.143-1.659c5.389,4.179,11.338,7.371,17.604,10.006
			C157.4,170.476,162.002,170.939,164.892,174.434z"/>
		<path fill-rule="evenodd" clip-rule="evenodd" fill="#7ED3F5" d="M273.447,231.13c0.992,1.839,1.121,4.299,3.631,5.047
			c0.407,0.219,0.729,0.529,0.98,0.916c0.672,1.27,2.127,2.715,0.75,3.976c-1.479,1.355-2.613-0.469-3.786-1.247
			c-0.659-0.67-1.196-1.394-0.985-2.419c-0.097-1.545-0.447-2.941-2.082-3.595c-6.581-10.982-14.594-20.975-21.854-31.488
			c-9.541-13.82-19.393-27.427-29.111-41.124c-1.06-1.065-2.689-1.451-3.447-2.883c-0.509-0.73-1.002-1.473-1.566-2.168
			c-0.428-0.509-0.833-1.033-1.118-1.629c-0.519-1.086-0.905-2.308,0.159-3.178c1.206-0.987,2.105,0.12,2.948,0.855
			c0.622,0.543,1.061,1.256,1.52,1.938c0.512,0.738,0.982,1.507,1.454,2.271c0.582,0.931,1.299,1.761,2.016,2.593
			c2.67,3.638,4.957,7.546,7.85,11.026C244.949,190.442,259.879,210.312,273.447,231.13z"/>
		<path fill-rule="evenodd" clip-rule="evenodd" fill="#074C6D" d="M275.192,238.988c1.026,0.622,2.053,1.244,3.778,2.29
			c-0.764-1.809-1.269-3.003-1.772-4.196c0.603-0.573,1.226-0.617,1.872-0.074c1.719,0.29,3.438,0.58,5.155,0.87
			c3.991,1.719,5.553,4.41,4.625,7.97c-0.964,3.696-4.765,6.507-8.587,6.349c-4.084-0.17-6.6-2.72-7.173-7.268
			c0.002-0.551,0.004-1.102,0.006-1.651C272.951,241.435,273.089,239.731,275.192,238.988z"/>
		<path fill-rule="evenodd" clip-rule="evenodd" fill="#DADFE0" d="M273.091,244.928c1.272,1.69,1.812,3.923,3.901,5.016
			c3.642,1.905,6.809,1.229,9.362-1.843c2.701-3.248,1.905-6.7-2.128-10.223c-0.076-2.648,0.956-3.582,3.225-1.823
			c3.578,2.774,4.375,6.581,3.215,10.737c-1.143,4.096-5.842,7.399-9.803,7.102c-4.59-0.346-7.691-2.829-9.382-7.044
			C270.932,245.478,272.139,245.228,273.091,244.928z"/>
		<path fill-rule="evenodd" clip-rule="evenodd" fill="#CAD3D8" d="M275.192,238.988c-0.698,1.43-1.396,2.859-2.095,4.289
			c-4.358-2.708-1.408-4.245,0.939-5.876C274.422,237.931,274.807,238.459,275.192,238.988z"/>
		<path fill-rule="evenodd" clip-rule="evenodd" fill="#E8EBEC" d="M279.07,237.007c-0.625,0.024-1.25,0.05-1.873,0.074
			c-0.004-0.307-0.044-0.608-0.119-0.905c0.04-0.68,0.08-1.36,0.12-2.04c0.483-0.025,0.977-0.129,1.446-0.062
			c1.284,0.183,3.348-0.982,3.658,0.897C282.643,237.038,279.886,235.824,279.07,237.007z"/>
		<path fill-rule="evenodd" clip-rule="evenodd" fill="#FEFEFE" d="M230.051,170.139c-3.552-3.008-5.744-6.987-7.879-11.01
			c-0.006-1.762,1.156-3.08,1.752-4.613c2.322-5.975-0.221-12.318-6.045-15.061c-6.031-2.84-12.556-0.563-15.756,5.263
			c-1.283,2.335-1.195,5.223-3.144,7.233c-20.392,1.478-40.784,2.96-61.178,4.414c-0.601,0.043-1.222-0.204-1.833-0.314
			c12.504-20.742,25.007-41.485,37.514-62.227c5.653-9.376,11.312-18.748,16.971-28.124c2.032,0.034,4.062,0.072,6.088,0.106
			c14.662,31.524,29.33,63.05,43.983,94.582c0.554,1.19,0.97,2.444,1.45,3.668c-2.886,3.631-7.867,3.242-11.27,5.885
			C230.488,170.011,230.27,170.075,230.051,170.139z"/>
		<path fill-rule="evenodd" clip-rule="evenodd" fill="#C0DDE3" d="M198.979,151.952c0.765-11.767,9.888-18.077,19.477-13.808
			c7.402,3.296,10.991,14.628,3.716,20.985c-1.01-0.41-1.742-1.073-1.986-2.182c0.163-1.824,1.014-3.479,1.348-5.243
			c0.678-3.576-0.637-6.532-3.474-8.697c-2.557-1.95-5.602-2.469-8.362-0.836c-2.982,1.763-5.836,4.002-4.654,8.286
			c0.051,0.221,0.096,0.442,0.141,0.663C203.291,152.703,201.074,151.875,198.979,151.952z"/>
		<path fill-rule="evenodd" clip-rule="evenodd" fill="#94DBF8" d="M218.914,155.134c-1.213-1.023-1.374-3.092-3.395-3.384
			c-1.134,2.051,1.082,2.846,1.584,4.262c-4.244,3.951-9.148,2.689-11.104-2.857c2.021-0.342,4.299,0.461,6.686-2.034
			c-2.936,0-5.219,0-7.502,0l-0.283-0.109c-1.136-4.458,1.281-7.029,4.961-8.505c3.677-1.474,6.986-0.225,9.355,2.799
			C221.747,148.535,222.136,151.956,218.914,155.134z"/>
		<path fill-rule="evenodd" clip-rule="evenodd" fill="#BBDCE3" d="M218.283,158.033c1.154,0.839,2.27,1.71,2.707,3.162
			c-9.115,3.669-15.575,2.324-19.475-4.172c-0.877-1.459-1.582-2.918-3.51-3.102c1.918-1.432,4.088-0.586,6.154-0.683
			C207.771,158.07,212.531,159.512,218.283,158.033z"/>
		<path fill-rule="evenodd" clip-rule="evenodd" fill="#E2EFF0" d="M218.283,158.033c-5.992,3.662-11.02,1.955-14.123-4.795
			c0.614-0.027,1.229-0.056,1.842-0.084c2.902,4.05,6.59,5.054,11.102,2.858C217.497,156.686,217.891,157.359,218.283,158.033z"/>
		<path fill-rule="evenodd" clip-rule="evenodd" fill="#044A6B" d="M88.863,230.678c0.104,0.538,0.207,1.077,0.311,1.615
			c3.947,2.007,6.194,4.908,5.044,9.595c0.026,0.83,0.052,1.661,0.079,2.491c1.593,5.58-3.075,12.373-9.448,13.751
			c-6.49,1.402-12.866-1.156-16.346-6.799c-3.325-5.392-2.583-10.793,0.647-15.928c2.916-4.635,9.839-7.001,15.846-5.595
			C86.283,230.11,87.569,230.408,88.863,230.678z"/>
		<path fill-rule="evenodd" clip-rule="evenodd" fill="#E5EAEF" d="M88.863,230.678c-1.141,1.753-2.519,0.792-3.933,0.429
			c-7.91-2.03-15.361,2.25-16.885,9.639c-1.63,7.906,3.058,15.11,10.63,16.336c8.203,1.328,14.724-3.974,15.621-12.702
			c0.914-0.055,1.828-0.11,2.741-0.166c1.426,8.46-6.204,16.464-15.597,16.362c-7.105-0.076-15.091-6.261-16.562-12.824
			c-1.71-7.634,2.173-15.733,9.501-18.91c4.726-2.048,9.662-2.014,14.394,0.413l0.306,0.068l0.151-0.274
			C89.109,229.591,88.986,230.135,88.863,230.678z"/>
		<path fill-rule="evenodd" clip-rule="evenodd" fill="#B9C6D5" d="M88.774,229.254c-5.562-1.085-11.001-2.272-16.254,1.522
			c-6.155,4.447-8.743,12.319-5.856,19.372c2.516,6.146,10.852,10.817,17.053,9.557c8.377-1.704,13.223-7.34,13.321-15.492
			c0.332-0.025,0.664-0.05,0.996-0.074c0.225,7.059-2.99,12.599-8.899,15.335c-6.566,3.041-14.012,1.951-18.994-2.749
			c-1.32-1.245-2.705-2.422-4.06-3.63c-3.144-3.752-2.955-8.248-2.841-12.726c4.252-8.433,9.762-14.938,20.527-13.377
			C85.65,227.266,87.809,226.943,88.774,229.254z"/>
		<path fill-rule="evenodd" clip-rule="evenodd" fill="#7790B2" d="M92.819,226.994c2.663,4.457,6.944,7.907,7.721,13.57
			c0.327,2.384,2.986,1.535,4.667,1.552c13.742,0.131,27.485,0.175,41.229,0.248c1.309,0.007,2.66-0.277,3.865,0.514
			c-16.386,0.018-32.774,0.145-49.157-0.094c-1.952-0.028-4.277,1.402-6.11-0.568c0.245-0.605,0.706-1.046,1.135-1.51
			c0.911-2.813-1.03-4.614-2.369-6.595c-0.904-1.337-2.449-2.238-2.715-4.012C91.663,229.064,92.241,228.029,92.819,226.994z"/>
		<path fill-rule="evenodd" clip-rule="evenodd" fill="#F1F4F6" d="M96.948,241.967c-0.638,0.083-1.276,0.165-1.914,0.248
			c-0.247-0.172-0.52-0.28-0.816-0.327c-0.081-4.04-3.2-6.482-5.044-9.595c0.246-0.105,0.493-0.207,0.742-0.307
			C94.459,232.366,96.828,235.727,96.948,241.967z"/>
		<path fill-rule="evenodd" clip-rule="evenodd" fill="#BECAD8" d="M96.948,241.967c-1.25-4.098-1.725-8.742-7.033-9.98
			c0.39-0.629,0.78-1.259,1.17-1.888c3.135,1.871,5.191,4.632,6.428,8.005C97.999,239.427,98.931,240.949,96.948,241.967z"/>
		<path fill-rule="evenodd" clip-rule="evenodd" fill="#A3BD3C" d="M75.992,67.25c0.345,2.954,0.698,5.907,1.03,8.863
			c0.132,1.18,0.258,2.462-1.31,2.759c-1.632,0.309-1.953-1.079-2.138-2.154c-0.532-3.091-0.894-6.212-1.323-9.32
			C73.498,67.35,74.745,67.3,75.992,67.25z"/>
		<path fill-rule="evenodd" clip-rule="evenodd" fill="#A4BE3E" d="M84.118,103.689c0.921-0.094,1.206,0.829,1.55,1.49
			c1.285,2.472,2.437,5.012,3.728,7.48c0.582,1.113,1.033,2.059-0.306,2.94c-1.461,0.963-2.125-0.058-2.651-1.102
			c-1.329-2.631-2.545-5.319-3.857-7.96C81.791,104.948,82.264,104.06,84.118,103.689z"/>
		<path fill-rule="evenodd" clip-rule="evenodd" fill="#A2BD3A" d="M93.194,120.85c0.882-0.291,1.221,0.418,1.574,0.897
			c1.873,2.543,3.662,5.147,5.549,7.679c0.759,1.019,0.65,1.806-0.308,2.522c-0.702,0.525-1.401,0.865-2.091-0.106
			c-2.02-2.844-4.129-5.627-6.097-8.507C90.756,121.775,92.271,121.412,93.194,120.85z"/>
		<path fill-rule="evenodd" clip-rule="evenodd" fill="#A5BF3F" d="M75.769,87.484c-0.313-1.215,0.117-1.968,1.282-2.268
			c1.141-0.294,1.772,0.147,2.105,1.354c0.83,3.002,1.797,5.966,2.704,8.946c0.349,1.146-0.101,1.907-1.184,2.312
			c-1.359,0.508-1.789-0.563-2.088-1.442C77.586,93.44,76.7,90.455,75.769,87.484z"/>
		<path fill-rule="evenodd" clip-rule="evenodd" fill="#A3BE3C" d="M292.852,123.745c-1.062-0.51-2.362-0.995-1.547-2.494
			c1.664-3.055,3.443-6.049,5.244-9.025c0.541-0.896,1.401-0.631,2.181-0.211c0.64,0.345,1.183,0.974,0.84,1.579
			c-1.878,3.313-3.858,6.566-5.842,9.817C293.6,123.621,293.156,123.636,292.852,123.745z"/>
		<path fill-rule="evenodd" clip-rule="evenodd" fill="#A5BE3F" d="M266.25,152.714c-0.984-0.652-2.512-1.477-1.162-2.828
			c2.546-2.55,5.262-4.993,8.207-7.053c1.234-0.864,2.31,0.536,2.329,2.005C275.635,145.71,267.159,152.768,266.25,152.714z"/>
		<path fill-rule="evenodd" clip-rule="evenodd" fill="#A3BD3C" d="M260.271,156.856c-0.405,0.435-0.762,1.012-1.277,1.334
			c-2.661,1.665-5.362,3.263-8.049,4.888c-1.056,0.639-1.813,0.395-2.411-0.688c-0.484-0.875-0.389-1.64,0.417-2.133
			c2.958-1.813,5.904-3.655,8.96-5.291C259.482,154.125,259.717,155.693,260.271,156.856z"/>
		<path fill-rule="evenodd" clip-rule="evenodd" fill="#A3BE3D" d="M280.852,139.063c-1.207-0.355-2.55-1.012-1.359-2.615
			c1.967-2.648,4.152-5.147,6.389-7.578c1.336-1.453,2.451-0.51,2.977,0.881C289.246,130.776,282.253,138.917,280.852,139.063z"/>
		<path fill-rule="evenodd" clip-rule="evenodd" fill="#A1BE40" d="M135.224,160.772c4.393,1.3,8.153,3.777,11.85,6.373
			C142.775,168.421,135.199,164.346,135.224,160.772z"/>
		<path fill-rule="evenodd" clip-rule="evenodd" fill="#9DB930" d="M198.968,174.08c1.922,0.937,5.309-1.404,5.559,1.341
			c0.281,3.091-3.402,2.28-5.379,2.326c-2.389,0.056-6.759,1.608-6.851-1.175C192.156,172.314,196.865,175.65,198.968,174.08z"/>
		<path fill-rule="evenodd" clip-rule="evenodd" fill="#A5BF41" d="M214.566,176.151c-1.744-0.021-3.084,0.323-3.282-1.391
			c-0.149-1.291,0.738-1.637,1.81-1.86c2.917-0.608,5.816-1.301,8.732-1.914c0.957-0.2,2.021-0.456,2.275,1.031
			c0.202,1.192-0.265,1.867-1.442,2.147C219.764,174.855,216.877,175.583,214.566,176.151z"/>
		<path fill-rule="evenodd" clip-rule="evenodd" fill="#A0BB36" d="M180.612,177.435c-2.275-0.383-4.55-0.763-6.825-1.148
			c-1.099-0.187-1.831-0.657-1.652-1.961c0.15-1.097,0.91-1.307,1.767-1.216c3.285,0.347,6.566,0.737,9.844,1.148
			c0.99,0.124,1.336,0.834,1.313,1.764c-0.033,1.291-0.761,1.716-1.951,1.55c-0.82-0.115-1.639-0.238-2.458-0.357
			C180.637,177.289,180.625,177.362,180.612,177.435z"/>
		<path fill-rule="evenodd" clip-rule="evenodd" fill="#A5C251" d="M164.892,174.434c-4.165-1.235-7.824-3.365-11.062-6.245
			c3.329,0.901,6.638,1.894,9.997,2.674C166.487,171.481,165.912,172.836,164.892,174.434z"/>
		<path fill-rule="evenodd" clip-rule="evenodd" fill="#FDFEFE" d="M273.447,231.13c-4.494-3.796-7.135-9.024-10.484-13.691
			c-10.346-14.413-20.575-28.909-30.813-43.399c-0.846-1.197-1.406-2.597-2.1-3.901c0,0.001,0.002-0.032,0.002-0.032
			c4.703-0.294,8.635-3.647,13.476-3.396C253.502,188.183,263.475,209.657,273.447,231.13z"/>
		<path fill-rule="evenodd" clip-rule="evenodd" fill="#A3BD3F" d="M243.528,166.709c-3.005,1.28-6.038,2.503-9.007,3.863
			c-1.646,0.755-3.109,0.952-4.469-0.467c2.782-4.365,8.045-3.843,11.922-6.049C242.492,164.942,243.011,165.826,243.528,166.709z"
			/>
		<path fill-rule="evenodd" clip-rule="evenodd" fill="#E8F2F2" d="M218.914,155.134c0.328-1.281,0.803-2.546,0.957-3.848
			c0.463-3.881-1.525-6.45-4.944-7.725c-3.606-1.344-6.558,0.088-8.533,3.241c-0.771,1.231-1.011,2.796-1.493,4.209
			c-2.957-0.761-1.756-2.692-1.086-4.281c1.488-3.533,3.971-6.085,7.931-6.6c4.114-0.534,7.417,0.876,9.636,4.562
			c2.657,4.411,2.166,8.461-1.195,12.257C219.762,156.343,219.338,155.739,218.914,155.134z"/>
	</g>
</g>
</svg>
